<?xml version="1.0" standalone="no"?>
<!DOCTYPE svg PUBLIC "-//W3C//DTD SVG 20010904//EN"
 "http://www.w3.org/TR/2001/REC-SVG-20010904/DTD/svg10.dtd">
<svg version="1.0" xmlns="http://www.w3.org/2000/svg"
 width="512.000000pt" height="512.000000pt" viewBox="0 0 512.000000 512.000000"
 preserveAspectRatio="xMidYMid meet">

<g transform="translate(0.000000,512.000000) scale(0.100000,-0.100000)"
fill="#000000" stroke="none">
<path d="M2580 4916 c-291 -52 -561 -217 -733 -446 -150 -200 -238 -475 -237
-740 1 -69 4 -104 25 -257 7 -51 7 -51 -26 -68 -77 -39 -110 -90 -110 -171 0
-73 37 -141 108 -194 l53 -41 0 -173 c0 -310 -35 -421 -255 -801 -118 -204
-165 -298 -204 -409 -57 -161 -76 -346 -50 -493 l11 -63 -66 -133 c-68 -137
-116 -286 -116 -364 0 -37 5 -46 51 -87 214 -193 576 -339 1024 -415 247 -42
416 -55 735 -55 356 -1 525 15 818 75 384 78 780 258 929 422 31 35 34 42 28
80 -23 133 -78 286 -147 401 -40 68 -40 69 -29 124 16 80 14 270 -5 358 -35
171 -98 311 -277 619 -164 281 -209 402 -227 609 -9 106 2 304 17 315 80 55
128 118 144 192 18 79 -24 160 -103 200 -38 20 -40 22 -33 57 40 206 31 441
-25 642 -29 106 -118 283 -190 378 -152 202 -375 348 -638 418 -119 32 -350
42 -472 20z m-85 -175 c3 -5 -41 -34 -97 -63 -143 -74 -207 -119 -304 -210
-166 -158 -276 -346 -334 -573 -11 -44 -23 -70 -31 -70 -22 0 -13 111 17 213
81 280 273 513 525 638 116 58 211 86 224 65z m474 -176 c354 -85 624 -373
715 -766 18 -74 13 -78 -88 -60 -140 24 -230 87 -333 234 -31 43 -62 77 -71
77 -9 0 -55 -40 -102 -89 -65 -68 -101 -96 -155 -122 -65 -32 -77 -34 -165
-33 -77 0 -105 4 -145 23 -70 32 -136 84 -196 158 -70 83 -82 83 -144 -8 -72
-106 -135 -165 -211 -201 -65 -31 -206 -59 -221 -44 -4 4 2 45 14 92 123 474
497 779 933 759 58 -3 134 -12 169 -20z m-599 -573 c0 -5 31 -40 68 -78 209
-212 465 -209 673 7 l77 79 50 -67 c59 -79 131 -151 183 -182 47 -27 178 -61
240 -61 l48 0 7 -57 c4 -32 8 -99 8 -150 l1 -92 -42 -43 c-25 -25 -43 -53 -43
-66 0 -12 3 -22 7 -22 3 0 29 22 58 49 71 67 147 87 219 57 129 -54 100 -244
-48 -315 -48 -24 -87 -26 -151 -9 -24 7 -47 9 -51 6 -3 -4 -10 -39 -15 -80
-19 -154 -76 -289 -178 -425 -100 -133 -233 -227 -398 -282 -125 -42 -217 -55
-358 -48 -233 12 -421 88 -577 235 -149 141 -238 314 -267 521 -5 40 -12 75
-15 79 -3 3 -30 -1 -60 -8 -94 -22 -172 6 -232 86 -37 49 -45 143 -16 190 57
90 195 83 290 -16 36 -38 62 -46 62 -19 0 5 -20 32 -45 58 l-45 48 0 84 c0 46
3 114 7 152 l6 67 56 0 c103 0 228 47 306 113 22 19 67 71 100 116 54 74 75
94 75 73z m-523 -1074 c42 -253 220 -504 444 -630 46 -27 88 -49 93 -51 5 -2
11 -28 14 -59 l4 -55 -96 -52 c-248 -133 -403 -262 -457 -378 -31 -66 -35 -70
-106 -108 -155 -82 -372 -263 -485 -403 -27 -34 -54 -60 -58 -57 -16 10 -22
151 -10 250 24 198 79 337 255 641 226 388 277 557 261 856 l-7 117 58 4 c32
1 62 3 67 2 6 -1 16 -35 23 -77z m1950 72 l43 0 -7 -108 c-10 -173 22 -373 83
-522 38 -95 72 -160 180 -341 53 -90 114 -199 135 -242 101 -200 149 -445 121
-626 l-7 -44 -50 64 c-126 160 -324 321 -542 440 -20 11 -40 38 -60 80 -17 35
-47 83 -67 106 -52 60 -177 150 -338 244 l-138 81 0 54 c0 60 -11 50 122 124
90 50 250 214 309 315 58 99 94 191 109 275 7 36 14 76 16 89 4 18 9 22 27 17
12 -3 41 -6 64 -6z m-1027 -814 c154 0 238 10 313 39 15 6 17 0 17 -55 0 -49
-14 -104 -69 -273 -80 -246 -143 -470 -211 -752 -28 -119 -50 -191 -53 -180
-3 11 -31 122 -62 248 -68 278 -147 554 -214 747 -38 107 -51 160 -51 201 0
31 2 58 6 61 3 3 40 -4 82 -16 64 -17 104 -21 242 -20z m-287 -351 c96 -295
276 -979 262 -993 -5 -5 -193 76 -274 119 -113 59 -286 178 -383 263 -86 75
-155 161 -198 246 -31 61 -32 150 -1 213 27 56 139 171 218 224 94 63 288 171
295 164 4 -3 40 -109 81 -236z m785 174 c64 -40 135 -81 156 -93 58 -31 199
-174 224 -227 34 -70 31 -169 -8 -245 -34 -68 -123 -181 -166 -208 -25 -17
-103 -78 -161 -126 -50 -42 -152 -102 -305 -178 -187 -93 -208 -101 -208 -77
0 17 86 383 120 510 69 261 214 715 227 715 2 0 57 -32 121 -71z m-1448 -440
c0 -19 -39 -77 -57 -83 -17 -7 -33 9 -33 34 0 8 17 25 38 37 43 25 52 27 52
12z m1977 -24 c34 -20 63 -43 63 -50 0 -32 -52 -4 -79 42 -10 16 -12 16 -21 2
-5 -9 -19 -27 -30 -40 l-22 -24 6 25 c3 14 6 37 6 53 0 15 3 27 7 27 3 0 35
-16 70 -35z m363 -284 c171 -186 273 -355 334 -549 33 -107 33 -142 -1 -182
l-27 -32 -17 21 c-23 28 -43 27 -63 -4 -22 -34 -45 -32 -52 4 -5 25 -13 31
-53 41 -67 17 -134 49 -236 115 -121 78 -193 111 -276 126 -62 11 -72 10 -86
-4 -15 -15 -14 -26 10 -149 45 -223 87 -449 87 -463 0 -22 -151 -59 -395 -96
-124 -19 -572 -45 -583 -34 -3 3 -6 170 -6 370 l-1 365 50 19 c28 11 58 23 69
27 16 6 17 5 6 -15 -6 -13 -10 -25 -8 -27 6 -6 150 21 246 46 99 25 162 49
162 61 0 5 14 9 30 9 32 0 70 30 70 55 0 18 5 18 31 4 16 -8 29 -5 63 15 85
50 165 117 196 167 18 27 48 62 67 76 38 30 83 110 108 195 l16 57 90 -66 c49
-36 126 -104 169 -152z m-2502 162 c15 -58 59 -148 97 -198 l28 -36 22 21 c21
20 25 20 59 6 56 -23 105 -66 127 -109 28 -53 14 -67 -40 -39 -72 38 -47 0 37
-55 116 -76 122 -79 129 -54 3 12 7 21 10 21 15 0 47 -26 62 -51 l18 -29 24
38 c35 54 53 49 59 -18 l5 -55 79 -22 c81 -23 206 -47 309 -57 46 -5 57 -4 51
6 -5 9 -4 10 5 2 8 -7 11 -108 9 -375 l-3 -364 -110 -3 c-109 -3 -386 23 -570
54 -123 20 -278 55 -291 66 -8 6 -6 36 8 111 97 527 95 513 68 522 -61 19
-180 -22 -317 -110 -56 -35 -117 -72 -137 -82 -23 -10 -36 -24 -36 -36 0 -16
-5 -18 -34 -13 -49 9 -66 -1 -66 -40 0 -42 -20 -45 -56 -9 -31 32 -47 32 -68
0 -22 -34 -45 -32 -52 4 -5 23 -13 31 -35 36 -16 4 -29 12 -29 20 0 7 11 57
25 111 28 112 107 280 183 394 48 71 292 330 310 330 5 0 26 14 47 30 21 17
43 30 49 30 7 0 18 -21 24 -47z m156 -710 c-2 -10 -11 -56 -19 -103 -21 -112
-24 -120 -40 -120 -28 0 -34 70 -10 128 14 33 64 112 70 112 2 0 1 -8 -1 -17z
m2010 3 c61 -25 136 -108 136 -151 0 -10 -35 -5 -64 10 -15 8 -30 15 -32 15
-2 0 -4 -22 -4 -50 0 -73 -17 -69 -94 20 -8 8 -18 40 -23 71 -7 44 -6 60 5 77
17 26 31 27 76 8z m-2297 -270 l27 -35 31 36 c40 46 55 37 55 -30 0 -39 -7
-65 -29 -102 -43 -75 -50 -79 -102 -59 -72 29 -121 75 -134 127 -6 22 -4 27
11 27 11 0 34 -9 53 -21 l33 -20 -6 36 c-8 43 0 75 19 75 8 0 26 -15 42 -34z
m2600 0 l27 -35 31 36 c19 22 36 34 43 29 13 -8 16 -104 4 -123 -4 -7 -43 -28
-85 -48 l-78 -36 -29 23 c-33 26 -78 103 -67 115 7 6 20 3 81 -22 17 -7 18 -5
12 18 -8 35 2 77 20 77 7 0 25 -15 41 -34z m-277 -236 c8 -5 11 -12 8 -16 -10
-9 -38 3 -38 16 0 12 10 13 30 0z"/>
<path d="M2557 4472 c-8 -11 6 -70 27 -114 33 -68 119 -128 186 -128 98 0 202
104 212 214 5 50 -19 39 -53 -25 -42 -78 -92 -114 -160 -114 -59 0 -109 37
-157 116 -33 55 -46 67 -55 51z"/>
<path d="M2405 4343 c19 -152 99 -309 188 -370 86 -58 229 -68 323 -22 87 42
172 171 209 317 17 66 17 123 0 129 -5 1 -20 -32 -33 -75 -80 -265 -219 -373
-408 -317 -102 30 -196 165 -244 353 -7 26 -16 42 -26 42 -13 0 -14 -9 -9 -57z"/>
<path d="M3274 4248 c10 -67 72 -182 133 -249 64 -68 138 -118 155 -101 7 7
-13 37 -64 99 -80 94 -142 182 -177 251 -12 23 -29 42 -37 42 -14 0 -15 -7
-10 -42z"/>
<path d="M2195 4198 c-56 -86 -164 -225 -194 -252 -20 -19 -29 -56 -13 -56 36
0 169 121 214 195 27 43 68 147 68 170 0 34 -30 11 -75 -57z"/>
<path d="M2265 3751 c-23 -10 -53 -33 -68 -50 -48 -57 -48 -107 -1 -154 86
-87 274 -9 274 113 0 90 -105 137 -205 91z m147 -51 c24 -29 23 -61 -3 -94
-50 -63 -156 -75 -191 -22 -13 20 -8 70 10 93 42 54 149 67 184 23z"/>
<path d="M3144 3760 c-11 -4 -33 -23 -48 -41 -51 -60 -20 -144 69 -185 109
-51 215 -9 215 86 0 97 -139 180 -236 140z m126 -50 c38 -20 70 -62 70 -95 0
-9 -11 -27 -25 -40 -46 -47 -149 -23 -189 44 -15 27 -16 36 -6 60 21 52 84 65
150 31z"/>
<path d="M2324 3384 c-65 -32 -77 -124 -23 -175 62 -57 169 -25 184 55 10 50
-17 104 -59 121 -44 19 -63 18 -102 -1z"/>
<path d="M3125 3390 c-11 -4 -31 -19 -44 -34 -44 -47 -24 -144 35 -166 63 -24
121 -5 149 50 19 37 19 54 -1 95 -24 51 -89 76 -139 55z"/>
<path d="M1656 3252 c-15 -15 -2 -30 35 -41 22 -7 57 -28 78 -47 50 -45 72
-45 55 0 -12 32 -152 105 -168 88z"/>
<path d="M3829 3246 c-73 -26 -127 -79 -115 -113 5 -12 16 -7 51 26 24 22 56
43 72 47 51 12 66 24 52 40 -14 17 -14 17 -60 0z"/>
<path d="M2688 3170 c-9 -6 -22 -25 -28 -44 -24 -74 40 -144 123 -133 45 6 77
31 61 47 -6 6 -20 6 -42 -2 -41 -16 -81 -2 -101 34 -14 25 -14 29 7 57 34 46
24 66 -20 41z"/>
<path d="M2632 2870 c-18 -11 -36 -30 -40 -41 -8 -20 -10 -19 -36 15 -27 36
-46 40 -46 9 0 -9 15 -34 33 -57 19 -23 37 -56 40 -75 15 -75 98 -140 177
-141 93 0 177 58 201 140 7 25 28 64 46 88 36 48 39 58 21 65 -7 3 -25 -9 -39
-26 l-27 -31 -27 32 c-33 39 -78 49 -129 28 -33 -14 -41 -14 -66 -1 -39 20
-69 19 -108 -5z"/>
<path d="M1856 2568 c-2 -7 -9 -51 -15 -98 -29 -223 -81 -337 -246 -535 -136
-163 -198 -276 -216 -390 -13 -85 -5 -138 19 -133 13 2 19 18 24 63 14 125 66
222 213 394 109 128 177 240 211 345 41 132 56 366 23 366 -5 0 -11 -6 -13
-12z"/>
<path d="M2047 2373 c-4 -3 -7 -25 -7 -47 0 -96 -44 -200 -149 -359 -39 -59
-71 -112 -71 -117 0 -29 45 -2 108 64 49 52 83 99 113 160 39 79 42 92 43 168
1 110 -12 157 -37 131z"/>
<path d="M3660 2468 c0 -186 36 -305 134 -451 30 -45 85 -116 121 -157 133
-152 194 -267 211 -398 5 -41 10 -52 23 -50 13 3 16 17 15 78 -1 142 -56 252
-228 460 -149 179 -202 290 -225 471 -20 148 -22 159 -37 159 -11 0 -14 -22
-14 -112z"/>
<path d="M3463 2354 c-3 -8 -3 -60 -1 -115 5 -90 9 -106 43 -176 57 -116 215
-270 215 -210 0 7 -20 42 -46 78 -25 35 -63 96 -84 134 -40 72 -90 226 -90
276 0 32 -26 41 -37 13z"/>
<path d="M2057 1763 c-12 -11 -7 -97 8 -158 20 -78 65 -170 133 -269 104 -153
157 -203 346 -330 73 -49 85 -53 104 -34 24 24 11 47 -53 97 -206 162 -380
395 -451 604 -13 38 -29 76 -35 83 -12 15 -41 19 -52 7z"/>
<path d="M3439 1753 c-9 -10 -26 -47 -38 -83 -56 -160 -143 -282 -355 -498
-136 -137 -159 -165 -150 -180 17 -26 50 -26 86 -1 127 89 297 248 356 334
101 147 173 338 154 410 -10 35 -32 43 -53 18z"/>
</g>
</svg>
